# xmcd
#
# Track frame offsets: 
#        150
#        11722
#        23930
#        36795
#        50270
#        63092
#        75237
#        87447
#        98957
#        115167
#        126872
#        140340
#
# Disc length: 2091 seconds
#
# Revision: 0
# Processed by: cddbd v1.4PL0 Copyright (c) Steve Scherf et al.
# Submitted via: ExactAudioCopy v0.90b4
#
DISCID=9108290c
DTITLE=West verginian railroad - Deep River
DYEAR=1900
DGENRE=
TTITLE0=Deep River
TTITLE1=My little village
TTITLE2=Bad news came too late
TTITLE3=try to cry your memory away
TTITLE4=Remember me the way I am
TTITLE5=Poison love
TTITLE6=My living to do
TTITLE7=Uncle Sam
TTITLE8=The day El Paso died
TTITLE9=Heartache in high heels
TTITLE10=If I've hurt you I'm sorry
TTITLE11=Don't go California
EXTD=
EXTT0=
EXTT1=
EXTT2=
EXTT3=
EXTT4=
EXTT5=
EXTT6=
EXTT7=
EXTT8=
EXTT9=
EXTT10=
EXTT11=
PLAYORDER=
